<svg xmlns="http://www.w3.org/2000/svg" viewBox="0 0 163.108 34.795"><defs><style>.a{fill:#4d4f53;}.b{fill:#00add0;}</style></defs><g transform="translate(56.822 8.279)"><path class="a" d="M487.3,86.392l2.74-3.265a9.159,9.159,0,0,0,5.76,2.134c1.341,0,2.052-.455,2.052-1.213V84c0-.758-.583-1.143-3.02-1.726-3.778-.863-6.693-1.924-6.693-5.55v-.047c0-3.3,2.612-5.679,6.868-5.679a11.192,11.192,0,0,1,7.3,2.355l-2.46,3.475a8.7,8.7,0,0,0-4.967-1.749c-1.189,0-1.772.478-1.772,1.143v.047c0,.816.606,1.166,3.09,1.726,4.058.886,6.588,2.2,6.588,5.527v.047c0,3.626-2.868,5.784-7.171,5.784A12.61,12.61,0,0,1,487.3,86.392Z" transform="translate(-487.3 -71)"/><path class="a" d="M632.275,84.6,625.5,73.5h5.6l3.65,6.46,3.673-6.46h5.5L637.2,84.519v6.716h-4.921Z" transform="translate(-609.385 -73.208)"/><path class="a" d="M783,86.392l2.74-3.265a9.159,9.159,0,0,0,5.76,2.134c1.341,0,2.052-.455,2.052-1.213V84c0-.758-.583-1.143-3.02-1.726-3.778-.863-6.693-1.924-6.693-5.55v-.047c0-3.3,2.612-5.679,6.868-5.679a11.192,11.192,0,0,1,7.3,2.355l-2.46,3.475a8.7,8.7,0,0,0-4.967-1.749c-1.189,0-1.772.478-1.772,1.143v.047c0,.816.606,1.166,3.09,1.726,4.058.886,6.588,2.2,6.588,5.527v.047c0,3.626-2.868,5.784-7.171,5.784A12.61,12.61,0,0,1,783,86.392Z" transform="translate(-748.52 -71)"/><path class="a" d="M934.494,77.714H929.2V73.4h15.544v4.314h-5.329V91.147h-4.921Z" transform="translate(-877.672 -73.12)"/><path class="a" d="M1086.212,73.4h14.273v4.163h-9.41V80.28h8.512v3.883h-8.512v2.81h9.527v4.186h-14.4V73.4Z" transform="translate(-1016.365 -73.12)"/><path class="a" d="M1237,73.4h5.2l4.233,6.868,4.233-6.868h5.2V91.147h-4.9V80.956l-4.536,6.95h-.1l-4.513-6.926V91.147H1237Z" transform="translate(-1149.581 -73.12)"/></g><g transform="translate(0 0)"><path class="b" d="M283.792,3.6h-4.279L262.5,20.613l16.931,16.943h4.291L266.779,20.613Z" transform="translate(-231.891 -3.18)"/><path class="b" d="M44.345.42H40.054L32.206,8.279a16.774,16.774,0,0,0-1.364-1.912L36.789.42H32.5L28.72,4.2a17.4,17.4,0,1,0-.047,26.434l3.743,3.743h4.291l-5.9-5.9a18.316,18.316,0,0,0,1.376-1.9l7.8,7.8h4.291L27.332,17.433Zm-22.936,11.1A7.069,7.069,0,0,0,17.4,10.285a7.16,7.16,0,1,0,4.011,13.083l1.458,1.458a9.228,9.228,0,1,1,.035-14.8Zm-2.216,2.2-3.708,3.708,3.708,3.708a4.067,4.067,0,0,1-1.8.42,4.128,4.128,0,0,1,0-8.256A4.067,4.067,0,0,1,19.193,13.724Zm5.784,8.92-5.212-5.212L25,12.2a9.245,9.245,0,0,1,1.1,2.169L23.03,17.433l3.043,3.043A8.619,8.619,0,0,1,24.977,22.645ZM17.4,31.763A14.366,14.366,0,1,1,29.979,10.494l-1.563,1.563a12.256,12.256,0,1,0-.023,10.728l1.563,1.563A14.371,14.371,0,0,1,17.4,31.763Z" transform="translate(0 0)"/></g></svg>